<?xml version="1.0" encoding="utf-8"?>
<!DOCTYPE svg PUBLIC "-//W3C//DTD SVG 1.1//EN" "http://www.w3.org/Graphics/SVG/1.1/DTD/svg11.dtd">
<svg version="1.1" id="Icon" xmlns="http://www.w3.org/2000/svg" xmlns:xlink="http://www.w3.org/1999/xlink" width = "24px" height="24px" x="0px" y="0px" viewBox="0 0 48 48" enable-background="new 0 0 48 48" xml:space="preserve">

<path fill = "#666" d="M48,42c0,3.313-2.687,6-6,6H6c-3.313,0-6-2.687-6-6V6
	c0-3.313,2.687-6,6-6h36c3.313,0,6,2.687,6,6V42z"/>
<g>
	<g>
		<path fill="#FFFFFF" d="M15.731,11.633c-1.608,0-2.658,1.083-2.625,2.527c-0.033,1.378,1.018,2.494,2.593,2.494
			c1.641,0,2.691-1.116,2.691-2.494C18.357,12.716,17.339,11.633,15.731,11.633z M13.237,35.557h4.988V18.508h-4.988V35.557z
			 M31.712,18.748c-1.595,0-3.222-0.329-4.956,2.36h-0.099l-0.087-2.599h-4.417c0.065,1.411,0.074,3.518,0.074,5.52v11.529h4.988
			v-9.854c0-0.46,0.065-0.919,0.196-1.248c0.328-0.919,1.149-1.871,2.527-1.871c1.805,0,2.527,1.411,2.527,3.479v9.494h4.988V25.439
			C37.455,20.713,34.993,18.748,31.712,18.748z"/>
	</g>
</g>
</svg>
