<?xml version="1.0" encoding="UTF-8" standalone="no"?>
<svg
   xmlns:dc="http://purl.org/dc/elements/1.1/"
   xmlns:cc="http://creativecommons.org/ns#"
   xmlns:rdf="http://www.w3.org/1999/02/22-rdf-syntax-ns#"
   xmlns:svg="http://www.w3.org/2000/svg"
   xmlns="http://www.w3.org/2000/svg"
   xmlns:sodipodi="http://sodipodi.sourceforge.net/DTD/sodipodi-0.dtd"
   xmlns:inkscape="http://www.inkscape.org/namespaces/inkscape"
   version="1.1"
   id="Icon"
   x="0px"
   y="0px"
   viewBox="176 176 47.809 47.809"
   enable-background="new 176 176 48 48"
   xml:space="preserve"
   inkscape:version="0.48.2 r9819"
   width="100%"
   height="100%"
   sodipodi:docname="webicon-google.svg"><metadata
   id="metadata11"><rdf:RDF><cc:Work
       rdf:about=""><dc:format>image/svg+xml</dc:format><dc:type
         rdf:resource="http://purl.org/dc/dcmitype/StillImage" /></cc:Work></rdf:RDF></metadata><defs
   id="defs9" /><sodipodi:namedview
   pagecolor="#ffffff"
   bordercolor="#666666"
   borderopacity="1"
   objecttolerance="10"
   gridtolerance="10"
   guidetolerance="10"
   inkscape:pageopacity="0"
   inkscape:pageshadow="2"
   inkscape:window-width="640"
   inkscape:window-height="480"
   id="namedview7"
   showgrid="false"
   fit-margin-top="0"
   fit-margin-left="0"
   fit-margin-right="0"
   fit-margin-bottom="0"
   inkscape:zoom="4.9166667"
   inkscape:cx="23.464"
   inkscape:cy="24.442"
   inkscape:window-x="0"
   inkscape:window-y="0"
   inkscape:window-maximized="0"
   inkscape:current-layer="Icon" />
<path
   d="m 223.809,217.834 c 0,3.299 -2.678,5.975 -5.976,5.975 h -35.856 c -3.301,0 -5.977,-2.676 -5.977,-5.975 v -35.857 c 0,-3.299 2.676,-5.977 5.977,-5.977 h 35.856 c 3.3,0 5.976,2.677 5.976,5.977 v 35.857 z"
   id="path3"
   inkscape:connector-curvature="0"
   style="fill:#666" />
<path
   d="m 206.117,203.016 c -0.632,-0.272 -1.26,-0.423 -1.887,-0.45 -0.436,-0.014 -1.173,-0.054 -2.213,-0.122 -1.042,-0.068 -1.859,-0.109 -2.458,-0.121 -0.558,-0.014 -1.099,-0.035 -1.622,-0.063 -0.524,-0.025 -0.984,-0.094 -1.377,-0.203 -0.409,-0.095 -0.756,-0.276 -1.041,-0.542 -0.286,-0.264 -0.428,-0.648 -0.428,-1.152 0,-0.489 0.169,-0.878 0.509,-1.162 0.34,-0.285 0.666,-0.482 0.979,-0.592 h 2.468 c 1.903,0 3.574,-0.612 5.008,-1.835 1.436,-1.224 2.152,-2.72 2.152,-4.488 0,-0.679 -0.122,-1.374 -0.366,-2.082 -0.245,-0.707 -0.62,-1.354 -1.123,-1.938 v -0.122 h 4.733 v -1.958 h -7.019 c -0.625,-0.189 -1.241,-0.347 -1.846,-0.469 -0.605,-0.122 -1.215,-0.184 -1.826,-0.184 -2.217,0 -4.037,0.612 -5.457,1.836 -1.421,1.225 -2.132,2.788 -2.132,4.692 0,1.266 0.359,2.377 1.081,3.335 0.72,0.959 1.733,1.745 3.04,2.357 v 0.306 c -1.034,0.435 -1.805,0.956 -2.316,1.561 -0.51,0.605 -0.765,1.268 -0.765,1.988 0,0.572 0.109,1.052 0.327,1.439 0.218,0.387 0.503,0.725 0.857,1.011 0.312,0.244 0.686,0.459 1.122,0.642 0.435,0.183 0.857,0.337 1.264,0.459 v 0.285 c -1.686,0.07 -3.074,0.504 -4.162,1.305 -1.088,0.803 -1.632,1.897 -1.632,3.286 0,1.713 0.756,3.014 2.265,3.906 1.508,0.893 3.787,1.338 6.833,1.338 1.863,0 3.427,-0.178 4.693,-0.531 1.266,-0.355 2.353,-0.852 3.264,-1.49 0.856,-0.626 1.496,-1.364 1.919,-2.214 0.421,-0.85 0.633,-1.756 0.633,-2.724 0,-0.966 -0.157,-1.774 -0.47,-2.428 -0.312,-0.652 -0.74,-1.237 -1.284,-1.755 -0.515,-0.475 -1.089,-0.849 -1.723,-1.121 z m -4.733,-7.232 c -0.633,0.946 -1.533,1.417 -2.702,1.417 -1.047,0 -1.901,-0.475 -2.561,-1.427 -0.66,-0.952 -0.989,-2.183 -0.989,-3.693 0,-0.666 0.058,-1.316 0.173,-1.948 0.115,-0.633 0.309,-1.174 0.582,-1.622 0.286,-0.49 0.657,-0.867 1.112,-1.132 0.455,-0.265 1.002,-0.398 1.642,-0.398 1.168,0 2.076,0.473 2.723,1.418 0.645,0.945 0.97,2.213 0.97,3.804 0,1.441 -0.316,2.635 -0.95,3.581 z m 3.142,16.789 c -1.148,0.77 -2.724,1.153 -4.722,1.153 -1.156,0 -2.135,-0.111 -2.939,-0.336 -0.802,-0.224 -1.442,-0.514 -1.917,-0.868 -0.503,-0.366 -0.857,-0.768 -1.061,-1.203 -0.204,-0.435 -0.306,-0.891 -0.306,-1.367 0,-1.061 0.31,-1.927 0.929,-2.601 0.619,-0.674 1.663,-1.154 3.132,-1.439 1.563,0 2.939,0.035 4.12,0.102 1.184,0.069 1.967,0.131 2.348,0.184 0.721,0.176 1.257,0.51 1.613,1.001 0.353,0.49 0.529,1.113 0.529,1.876 -0.002,1.563 -0.576,2.73 -1.726,3.498 z"
   id="path5"
   inkscape:connector-curvature="0"
   style="fill:#ffffff" />
</svg>